<?xml version="1.0" standalone="no"?>
<!DOCTYPE svg PUBLIC "-//W3C//DTD SVG 20010904//EN"
 "http://www.w3.org/TR/2001/REC-SVG-20010904/DTD/svg10.dtd">
<svg version="1.0" xmlns="http://www.w3.org/2000/svg"
 width="480.000000pt" height="256.000000pt" viewBox="0 0 480.000000 256.000000"
 preserveAspectRatio="xMidYMid meet">

<g transform="translate(0.000000,256.000000) scale(0.100000,-0.100000)"
fill="#000000" stroke="none">
<path d="M897 1210 c-104 -43 -190 -80 -192 -82 -2 -2 23 -14 55 -27 33 -13
60 -29 60 -35 0 -6 -8 -22 -17 -35 -9 -14 -18 -49 -20 -83 -3 -52 -1 -58 16
-58 18 0 20 7 18 63 -2 55 2 69 25 99 37 48 84 69 162 69 36 1 70 -2 76 -6 27
-17 2 -25 -79 -25 -71 0 -93 -4 -111 -18 -22 -18 -22 -18 88 -65 l111 -47 193
81 c106 45 194 82 195 83 3 2 -381 167 -387 166 -3 0 -90 -36 -193 -80z"/>
<path d="M2220 1170 l0 -70 -32 20 c-91 56 -188 -15 -188 -137 0 -28 8 -63 18
-83 34 -64 124 -90 176 -49 21 17 26 18 26 5 0 -12 10 -16 40 -16 l40 0 0 200
0 200 -40 0 -40 0 0 -70z m-24 -111 c14 -15 19 -36 19 -74 0 -88 -57 -124
-110 -70 -52 51 -21 165 44 165 16 0 36 -9 47 -21z"/>
<path d="M1751 1122 c-44 -22 -70 -57 -77 -104 -20 -118 59 -200 174 -183 47
7 102 51 102 81 0 19 -60 18 -74 -1 -6 -9 -27 -18 -47 -21 -29 -5 -41 -2 -58
15 -11 11 -21 30 -21 41 0 19 7 20 106 20 l107 0 -6 40 c-14 105 -115 159
-206 112z m113 -64 c9 -12 16 -26 16 -30 0 -5 -29 -8 -65 -8 -69 0 -78 7 -45
40 27 27 75 26 94 -2z"/>
<path d="M2431 1122 c-50 -25 -74 -63 -78 -124 -7 -91 43 -156 129 -165 75 -9
132 27 153 95 6 20 3 22 -34 22 -23 0 -41 -4 -41 -10 0 -19 -40 -50 -64 -50
-15 0 -33 11 -46 28 -29 36 -24 117 10 144 32 26 66 23 86 -7 13 -19 25 -25
54 -25 34 0 38 2 33 23 -18 73 -124 109 -202 69z"/>
<path d="M2760 1123 c-52 -27 -80 -75 -80 -138 0 -96 69 -160 163 -152 57 5
95 30 119 78 35 67 15 159 -44 202 -38 28 -114 33 -158 10z m119 -69 c46 -58
14 -164 -49 -164 -41 0 -70 41 -70 98 0 83 74 124 119 66z"/>
<path d="M3510 1133 c-8 -3 -25 -15 -37 -26 l-23 -20 0 21 c0 19 -6 22 -40 22
l-40 0 0 -145 0 -145 39 0 39 0 4 90 c3 102 19 129 76 133 30 2 32 4 32 40 0
38 -11 44 -50 30z"/>
<path d="M3650 1133 c-36 -13 -60 -47 -60 -84 0 -46 11 -55 102 -83 59 -18 74
-26 76 -44 5 -32 -37 -49 -78 -32 -16 7 -30 19 -30 26 0 10 -13 14 -40 14 -49
0 -53 -19 -12 -60 52 -51 172 -53 218 -3 27 29 32 79 10 109 -8 11 -44 27 -88
39 -60 17 -74 24 -76 43 -3 17 2 22 20 24 42 2 62 -2 71 -17 9 -17 77 -21 77
-4 0 24 -24 52 -55 65 -34 14 -106 18 -135 7z"/>
<path d="M3970 1123 c-106 -55 -109 -227 -6 -274 49 -22 85 -24 130 -5 31 13
76 59 76 77 0 17 -62 9 -87 -11 -14 -11 -35 -20 -47 -20 -33 0 -66 28 -66 56
0 24 0 24 105 24 102 0 105 1 105 23 -1 36 -36 104 -64 122 -39 26 -105 29
-146 8z m102 -55 c8 -7 18 -21 21 -30 6 -16 -1 -18 -58 -18 -71 0 -85 15 -43
44 27 19 59 20 80 4z"/>
<path d="M3032 1013 c3 -77 9 -126 18 -140 29 -46 109 -57 154 -22 21 17 26
18 26 5 0 -12 10 -16 40 -16 l40 0 0 145 0 145 -39 0 -39 0 -4 -105 c-1 -57
-7 -108 -13 -114 -19 -18 -60 -22 -80 -7 -17 12 -20 29 -23 120 l-4 106 -40 0
-40 0 4 -117z"/>
<path d="M890 947 c0 -61 2 -67 29 -86 93 -66 188 -78 281 -35 84 39 90 47 90
122 0 53 -3 63 -15 58 -9 -3 -54 -22 -100 -42 l-85 -36 -85 36 c-46 20 -91 39
-100 42 -12 5 -15 -5 -15 -59z"/>
</g>
</svg>
